# xmcd
#
# Track frame offsets: 
#        150
#        12710
#        35010
#        48075
#        67213
#        81765
#        100130
#        112058
#        129255
#        149823
#        160318
#        194225
#        212018
#        226353
#        238473
#        253890
#        266723
#        280865
#        299093
#
# Disc length: 4203 seconds
#
# Revision: 2
# Processed by: cddbd v1.5.2PL0 Copyright (c) Steve Scherf et al.
# Submitted via: ExactAudioCopy v0.99pb4
#
DISCID=3e106913
DTITLE=Muddy Waters - Charly Blues Masterworks Vol. 39
DYEAR=1900
DGENRE=Blues
TTITLE0=Can't get no grindin' (what's the matter with the mill)
TTITLE1=Mother's bad luck child
TTITLE2=Funky Butt
TTITLE3=Sad letter
TTITLE4=Someday I'm gonna ketch you
TTITLE5=Love weapon
TTITLE6=Garbage man
TTITLE7=After hours
TTITLE8=Whiskey ain't no good
TTITLE9=Muddy Waters' shuffle
TTITLE10=Rollin' and tumblin'
TTITLE11=Just to be with you
TTITLE12=Electric man
TTITLE13=Trouble no more
TTITLE14='Unk' in funk
TTITLE15=Drive my blues away
TTITLE16=Katie
TTITLE17=Waterboy, waterboy
TTITLE18=Everything is gonna be alright
EXTD=
EXTT0=
EXTT1=
EXTT2=
EXTT3=
EXTT4=
EXTT5=
EXTT6=
EXTT7=
EXTT8=
EXTT9=
EXTT10=
EXTT11=
EXTT12=
EXTT13=
EXTT14=
EXTT15=
EXTT16=
EXTT17=
EXTT18=
PLAYORDER=
